<?xml version="1.0" standalone="no"?>
<!DOCTYPE svg PUBLIC "-//W3C//DTD SVG 20010904//EN"
 "http://www.w3.org/TR/2001/REC-SVG-20010904/DTD/svg10.dtd">
<svg version="1.0" xmlns="http://www.w3.org/2000/svg"
 width="1024.000000pt" height="1024.000000pt" viewBox="0 0 1024.000000 1024.000000"
 preserveAspectRatio="xMidYMid meet">

<g transform="translate(0.000000,1024.000000) scale(0.100000,-0.100000)"
fill="#000000" stroke="none">
<path d="M4915 9354 c-111 -9 -271 -27 -282 -33 -6 -3 12 -6 42 -6 29 0 51 4
47 9 -3 5 15 6 42 3 34 -5 45 -4 40 5 -5 7 -2 9 7 6 8 -3 49 -2 90 2 42 4 91
5 110 2 33 -5 33 -6 9 -13 -14 -4 50 -7 142 -6 91 1 164 -2 161 -6 -3 -5 5 -7
18 -6 13 2 25 -1 26 -6 1 -5 10 -12 20 -16 10 -3 -10 -7 -44 -8 -35 0 -63 3
-63 8 0 5 19 7 43 5 41 -4 41 -3 8 5 -19 5 -50 7 -68 4 -33 -6 -33 -6 -11 -17
17 -8 24 -22 26 -49 3 -32 7 -37 28 -37 21 0 24 -4 24 -40 0 -29 4 -40 15 -40
11 0 15 -11 15 -40 0 -29 -4 -40 -15 -40 -10 0 -15 -10 -15 -33 0 -29 -5 -35
-35 -46 -22 -8 -51 -10 -75 -6 -26 4 -40 3 -40 -4 0 -6 8 -10 18 -9 9 1 28 0
42 -3 14 -2 -42 -6 -125 -9 l-150 -7 172 1 c94 1 170 0 169 -2 -2 -1 -23 -6
-47 -11 -42 -8 -40 -9 29 -10 40 -1 137 -8 215 -17 78 -10 161 -17 184 -18 22
-1 39 -4 38 -7 -6 -9 140 -30 161 -23 14 4 15 3 6 -4 -10 -6 5 -13 50 -21 165
-31 504 -138 658 -208 70 -31 288 -142 339 -172 28 -17 54 -31 57 -31 12 0
281 -173 380 -245 284 -204 568 -485 789 -780 103 -137 136 -188 272 -413 240
-401 428 -996 473 -1500 19 -204 8 -721 -19 -882 -53 -324 -148 -676 -236
-875 -8 -16 -37 -82 -65 -145 -190 -430 -557 -921 -938 -1253 -599 -523 -1213
-806 -2027 -934 -90 -14 -182 -17 -510 -18 -392 0 -404 1 -579 28 -581 92
-1072 287 -1581 626 -295 197 -512 404 -799 759 -266 330 -522 802 -640 1182
-93 302 -110 373 -151 622 -36 226 -47 401 -44 668 2 132 1 229 -2 215 -4 -13
-9 -109 -12 -212 -3 -103 -8 -197 -12 -208 -5 -15 -4 -16 3 -6 7 9 8 -6 5 -50
-2 -35 0 -92 5 -126 5 -34 5 -60 0 -57 -4 3 -8 -2 -8 -11 0 -9 4 -14 9 -11 5
4 7 -3 4 -14 -3 -11 2 -37 10 -59 9 -21 13 -42 9 -45 -3 -4 0 -12 8 -17 12 -8
11 -9 -5 -7 -16 3 -19 10 -17 33 2 17 1 27 -3 24 -3 -4 -7 -21 -10 -39 -6 -50
-23 -59 -21 -11 0 24 4 35 9 28 5 -7 5 1 1 18 -4 17 -6 65 -5 107 1 44 -3 79
-9 83 -6 4 -10 3 -9 -2 1 -4 1 -23 0 -40 -1 -31 -3 -33 -36 -33 -34 0 -35 -1
-35 -40 0 -38 -2 -40 -30 -40 -28 0 -30 -3 -30 -34 0 -19 -3 -37 -7 -39 -5 -3
-7 23 -5 56 1 34 -1 89 -6 122 -9 56 -10 53 -11 -57 -1 -117 -1 -118 -26 -124
-21 -5 -25 -12 -25 -45 0 -21 -4 -39 -10 -39 -5 0 -10 16 -10 35 0 19 -4 35
-10 35 -6 0 -10 -36 -10 -88 0 -75 -3 -92 -19 -106 -11 -10 -25 -15 -32 -10
-8 4 -10 3 -5 -4 11 -19 -5 -14 -21 6 -13 15 -14 14 -9 -13 3 -16 10 -63 16
-103 6 -41 19 -99 29 -130 l18 -57 10 35 11 35 -2 -47 c0 -28 -4 -42 -9 -35
-6 8 -7 5 -3 -6 3 -10 6 -28 6 -40 0 -16 3 -18 9 -9 5 9 8 0 9 -25 0 -21 21
-102 46 -181 142 -448 377 -913 625 -1241 47 -62 95 -125 105 -140 80 -107
326 -364 481 -503 318 -283 774 -582 1109 -724 495 -211 974 -322 1531 -354
370 -22 818 21 1155 110 432 114 682 210 1046 399 252 131 530 317 754 503
112 94 351 330 444 438 497 581 779 1141 941 1871 134 603 125 1331 -25 1930
-92 370 -224 687 -453 1094 -203 360 -549 781 -870 1058 -470 405 -1041 723
-1592 886 -267 79 -775 172 -866 159 -15 -3 -26 -1 -24 2 10 16 -367 25 -520
14z m250 -14 c-3 -5 -16 -10 -28 -10 -18 0 -19 2 -7 10 20 13 43 13 35 0z
m280 -30 c-3 -5 2 -10 12 -11 11 0 13 -3 5 -6 -7 -3 -20 -2 -30 2 -14 5 -14 7
-2 15 19 12 23 12 15 0z m84 -9 c12 -8 9 -11 -12 -17 -16 -3 -31 -4 -34 0 -4
3 5 6 18 6 19 0 21 2 9 10 -8 5 -10 10 -5 10 6 0 17 -4 24 -9z m64 2 c-7 -2
-21 -2 -30 0 -10 3 -4 5 12 5 17 0 24 -2 18 -5z m0 -20 c-7 -2 -21 -2 -30 0
-10 3 -4 5 12 5 17 0 24 -2 18 -5z m-213 -48 c0 -19 -4 -35 -10 -35 -5 0 -10
16 -10 35 0 19 5 35 10 35 6 0 10 -16 10 -35z m30 -295 c29 -6 24 -7 -25 -7
-33 1 -51 3 -41 5 15 3 16 6 5 14 -10 7 -9 8 6 3 11 -4 36 -11 55 -15z m120
10 c-8 -5 -26 -9 -40 -9 -23 1 -23 2 5 9 43 11 52 11 35 0z m-217 -7 c-7 -2
-19 -2 -25 0 -7 3 -2 5 12 5 14 0 19 -2 13 -5z m204 -19 c-3 -3 -12 -4 -19 -1
-8 3 -5 6 6 6 11 1 17 -2 13 -5z m-84 -11 c-13 -2 -33 -2 -45 0 -13 2 -3 4 22
4 25 0 35 -2 23 -4z m342 -51 c-3 -3 -11 0 -18 7 -9 10 -8 11 6 5 10 -3 15 -9
12 -12z m-4439 -4279 c-10 -10 -19 5 -10 18 6 11 8 11 12 0 2 -7 1 -15 -2 -18z
m-43 -28 c-3 -9 -8 -14 -10 -11 -3 3 -2 9 2 15 9 16 15 13 8 -4z m104 -277
c-3 -8 -6 -5 -6 6 -1 11 2 17 5 13 3 -3 4 -12 1 -19z m-360 -70 c-3 -7 -5 -2
-5 12 0 14 2 19 5 13 2 -7 2 -19 0 -25z m0 -50 c-3 -8 -6 -5 -6 6 -1 11 2 17
5 13 3 -3 4 -12 1 -19z m-6 -65 c-12 -20 -14 -14 -5 12 4 9 9 14 11 11 3 -2 0
-13 -6 -23z m29 -18 c0 -8 -4 -15 -10 -15 -5 0 -10 7 -10 15 0 8 5 15 10 15 6
0 10 -7 10 -15z"/>
<path d="M4888 9323 c6 -2 18 -2 25 0 6 3 1 5 -13 5 -14 0 -19 -2 -12 -5z"/>
<path d="M4573 9313 c9 -2 23 -2 30 0 6 3 -1 5 -18 5 -16 0 -22 -2 -12 -5z"/>
<path d="M4508 9303 c6 -2 18 -2 25 0 6 3 1 5 -13 5 -14 0 -19 -2 -12 -5z"/>
<path d="M4388 9283 c6 -2 18 -2 25 0 6 3 1 5 -13 5 -14 0 -19 -2 -12 -5z"/>
<path d="M4348 9273 c7 -3 16 -2 19 1 4 3 -2 6 -13 5 -11 0 -14 -3 -6 -6z"/>
<path d="M4298 9263 c7 -3 16 -2 19 1 4 3 -2 6 -13 5 -11 0 -14 -3 -6 -6z"/>
<path d="M3970 9190 c-20 -6 -21 -8 -5 -8 11 0 29 3 40 8 25 11 -1 11 -35 0z"/>
<path d="M3905 9170 c-13 -6 -15 -9 -5 -9 8 0 22 4 30 9 18 12 2 12 -25 0z"/>
<path d="M5283 9080 c0 -25 2 -35 4 -22 2 12 2 32 0 45 -2 12 -4 2 -4 -23z"/>
<path d="M5058 8943 c12 -2 32 -2 45 0 12 2 2 4 -23 4 -25 0 -35 -2 -22 -4z"/>
<path d="M4758 8933 c6 -2 18 -2 25 0 6 3 1 5 -13 5 -14 0 -19 -2 -12 -5z"/>
<path d="M4785 8900 c3 -5 8 -10 11 -10 2 0 4 5 4 10 0 6 -5 10 -11 10 -5 0
-7 -4 -4 -10z"/>
<path d="M4888 8903 c7 -3 16 -2 19 1 4 3 -2 6 -13 5 -11 0 -14 -3 -6 -6z"/>
<path d="M4968 8903 c7 -3 16 -2 19 1 4 3 -2 6 -13 5 -11 0 -14 -3 -6 -6z"/>
<path d="M4690 8890 c-34 -7 -34 -7 -5 -8 17 0 39 3 50 8 24 10 4 10 -45 0z"/>
<path d="M4573 8873 c9 -2 25 -2 35 0 9 3 1 5 -18 5 -19 0 -27 -2 -17 -5z"/>
<path d="M4476 8861 c-3 -4 6 -6 19 -3 14 2 25 6 25 8 0 8 -39 4 -44 -5z"/>
<path d="M5298 8663 c12 -2 30 -2 40 0 9 3 -1 5 -23 4 -22 0 -30 -2 -17 -4z"/>
<path d="M5477 8650 c51 -5 102 -14 113 -20 11 -6 24 -8 29 -5 5 3 20 1 33 -4
15 -5 30 -6 39 0 14 9 9 9 -66 14 -11 1 -26 4 -32 8 -7 4 -56 9 -110 12 l-98
4 92 -9z"/>
<path d="M5710 8610 c0 -5 11 -10 24 -10 13 0 45 -2 72 -5 l49 -5 -55 15 c-66
17 -90 18 -90 5z"/>
<path d="M5752 8581 c-11 -7 -11 -9 0 -14 9 -3 15 1 15 9 0 8 -1 14 -1 14 -1
0 -7 -4 -14 -9z"/>
<path d="M5825 8580 c-30 -5 -34 -8 -15 -10 14 -1 30 -1 35 0 50 12 50 12 35
0 -12 -9 -10 -11 10 -6 17 3 46 -5 84 -24 32 -17 66 -30 75 -29 10 0 7 4 -8
10 -13 5 -21 12 -18 15 3 4 22 -3 42 -15 20 -11 47 -21 61 -21 13 0 24 -4 24
-9 0 -5 -21 -4 -47 1 -27 5 -61 6 -78 3 -22 -3 -26 -2 -15 5 8 5 10 10 4 10
-6 0 -18 -7 -25 -17 -13 -15 -10 -16 39 -10 l52 6 0 -44 c0 -41 2 -45 25 -45
25 0 25 -1 25 -80 0 -73 -2 -83 -25 -106 -14 -14 -25 -31 -25 -39 0 -10 -10
-15 -30 -15 -28 0 -30 -2 -30 -40 l0 -40 -50 0 -50 0 0 -40 c0 -28 -4 -40 -15
-40 -18 0 -65 -47 -65 -65 0 -10 -11 -15 -36 -15 -27 0 -44 -8 -72 -35 -30
-28 -34 -37 -23 -44 12 -8 12 -12 2 -25 -7 -8 -21 -18 -32 -21 -15 -5 -19 -16
-19 -56 0 -48 -1 -49 -29 -49 -16 0 -32 6 -34 13 -4 9 -8 8 -16 -3 -8 -12 -6
-16 9 -20 18 -4 16 -8 -15 -33 -32 -25 -35 -33 -35 -77 0 -28 -4 -50 -10 -50
-5 0 -10 25 -10 55 0 30 -4 55 -10 55 -5 0 -10 -23 -10 -51 0 -42 -3 -52 -20
-56 -16 -4 -20 -14 -20 -44 0 -22 -4 -39 -10 -39 -5 0 -10 18 -10 40 0 29 -4
40 -15 40 -11 0 -15 -11 -15 -40 0 -36 -2 -40 -25 -40 -20 0 -25 -5 -25 -24 0
-17 -9 -28 -35 -40 -61 -29 -53 -38 34 -34 55 2 81 -1 81 -8 0 -6 18 -14 40
-18 22 -3 40 -11 40 -16 0 -6 -44 -7 -122 -3 -91 5 -119 3 -114 -5 4 -7 17
-12 29 -13 21 0 21 -1 2 -9 -11 -4 -60 -7 -110 -6 -49 1 -70 0 -45 -3 30 -4
-3 -8 -95 -12 -134 -5 -132 -5 52 -5 105 1 189 -1 186 -4 -2 -3 -334 -7 -736
-10 -520 -4 -237 -6 976 -8 l1709 -2 28 -30 c18 -19 31 -47 35 -73 4 -23 5
-922 3 -1997 -3 -1848 -4 -1957 -21 -1987 -36 -66 139 -61 -2112 -64 -1628 -3
-2055 -1 -2072 9 -56 31 -53 -49 -54 1489 -1 780 -4 1443 -9 1473 -4 34 -8
-65 -9 -255 -1 -170 -5 -316 -10 -323 -5 -9 -34 -14 -88 -15 -45 -1 -76 -5
-70 -9 7 -4 1 -15 -16 -28 -23 -18 -27 -29 -27 -71 0 -35 -4 -51 -15 -55 -10
-4 -15 -19 -15 -43 0 -24 -8 -45 -23 -61 -12 -14 -30 -36 -40 -50 -17 -24 -17
-24 -17 -2 0 12 -4 22 -9 22 -13 0 -21 -27 -21 -71 0 -35 -3 -39 -25 -39 -16
0 -25 6 -25 15 0 8 -4 15 -10 15 -5 0 -10 -7 -10 -15 0 -8 5 -15 10 -15 6 0
10 -18 10 -40 0 -38 -2 -40 -30 -40 -28 0 -30 -2 -30 -40 0 -36 -2 -40 -25
-40 -22 0 -25 -4 -25 -39 0 -37 -2 -40 -32 -43 -30 -3 -33 -6 -36 -40 -2 -21
-7 -38 -13 -38 -5 0 -9 -15 -9 -34 0 -34 -13 -46 -50 -46 -23 0 -70 -45 -70
-65 0 -8 -4 -15 -10 -15 -5 0 -10 -16 -10 -36 0 -27 -5 -37 -20 -41 -16 -4
-20 -14 -20 -44 0 -22 -4 -39 -10 -39 -5 0 -10 18 -10 40 0 29 -4 40 -15 40
-11 0 -15 -11 -15 -40 0 -29 -4 -40 -15 -40 -12 0 -15 -16 -15 -80 0 -47 -4
-80 -10 -80 -5 0 -10 14 -10 30 0 17 -4 30 -8 30 -16 0 -72 -70 -72 -90 0 -16
-7 -20 -35 -20 -46 0 -75 -29 -75 -75 0 -24 -5 -35 -15 -35 -13 0 -20 -40 -17
-90 0 -3 -12 -6 -26 -7 -15 0 -28 -6 -30 -12 -2 -6 -13 -11 -24 -11 -18 0 -20
-4 -14 -31 3 -18 1 -38 -5 -45 -6 -8 -9 -23 -6 -34 3 -11 2 -20 -3 -20 -14 0
-21 50 -10 73 10 20 10 21 -3 4 -18 -22 -30 -2 -15 26 6 12 5 17 -4 17 -6 0
-3 6 7 14 18 13 16 14 -22 13 l-42 -2 2 43 c2 49 0 51 -13 17 -9 -23 13 -98
65 -226 3 -9 14 -16 23 -14 9 1 11 0 4 -2 -9 -3 -12 -13 -8 -26 3 -12 6 -26 6
-30 0 -5 5 -5 12 -1 7 4 8 3 4 -4 -4 -6 3 -35 15 -63 21 -47 24 -50 36 -33 15
21 17 11 3 -15 -7 -14 1 -36 35 -96 25 -43 45 -80 45 -82 0 -2 21 -40 46 -84
29 -49 50 -77 57 -72 7 3 9 3 5 -2 -11 -11 24 -72 112 -198 143 -206 161 -230
326 -411 403 -445 900 -754 1529 -952 376 -119 798 -168 1253 -145 256 12 351
24 585 72 411 84 807 236 1108 425 489 307 821 628 1151 1114 267 393 483 978
538 1455 18 155 24 566 11 735 -44 573 -182 1031 -453 1509 -125 221 -313 468
-526 692 -89 94 -348 316 -450 386 -31 22 -79 55 -107 74 -86 60 -285 179
-412 246 -90 47 -129 63 -145 58 -15 -4 -18 -3 -10 3 14 10 0 18 -108 59 -216
83 -502 169 -520 158 -5 -3 -10 -1 -12 4 -5 13 -77 20 -123 11z m300 -68 c-3
-3 -11 0 -18 7 -9 10 -8 11 6 5 10 -3 15 -9 12 -12z m198 -89 c-7 -2 -21 -2
-30 0 -10 3 -4 5 12 5 17 0 24 -2 18 -5z m-20 -20 c-7 -2 -19 -2 -25 0 -7 3
-2 5 12 5 14 0 19 -2 13 -5z m47 -2 c0 -6 -4 -13 -10 -16 -5 -3 -10 1 -10 9 0
9 5 16 10 16 6 0 10 -4 10 -9z m140 -33 c0 -4 -7 -8 -15 -8 -8 0 -15 4 -15 8
0 5 7 9 15 9 8 0 15 -4 15 -9z m-243 -30 c-3 -8 -6 -5 -6 6 -1 11 2 17 5 13 3
-3 4 -12 1 -19z m263 2 c8 -5 11 -10 5 -10 -5 0 -17 5 -25 10 -8 5 -10 10 -5
10 6 0 17 -5 25 -10z m200 -74 c0 -2 -7 -7 -16 -10 -8 -3 -12 -2 -9 4 6 10 25
14 25 6z m-1267 -1003 c-7 -17 -24 -16 -57 1 -26 13 -26 14 17 12 31 -1 43 -5
40 -13z m380 -10 c-13 -2 -33 -2 -45 0 -13 2 -3 4 22 4 25 0 35 -2 23 -4z m0
-20 c-13 -2 -33 -2 -45 0 -13 2 -3 4 22 4 25 0 35 -2 23 -4z m-2792 -1840 c2
-23 0 -45 -4 -49 -4 -4 -7 17 -7 46 0 62 7 64 11 3z m-947 -1244 c-3 -5 -23
-9 -45 -9 -21 0 -39 4 -39 9 0 5 20 9 45 9 25 0 43 -4 39 -9z m-306 -254 c-3
-3 -9 2 -12 12 -6 14 -5 15 5 6 7 -7 10 -15 7 -18z m142 -35 c0 -11 -4 -20
-10 -20 -5 0 -10 9 -10 20 0 11 5 20 10 20 6 0 10 -9 10 -20z m-50 -91 c0 -5
-4 -9 -10 -9 -5 0 -10 7 -10 16 0 8 5 12 10 9 6 -3 10 -10 10 -16z"/>
<path d="M5638 8573 c6 -2 18 -2 25 0 6 3 1 5 -13 5 -14 0 -19 -2 -12 -5z"/>
<path d="M2020 7335 c-7 -9 -11 -17 -9 -20 3 -2 10 5 17 15 14 24 10 26 -8 5z"/>
<path d="M5233 7273 c9 -2 25 -2 35 0 9 3 1 5 -18 5 -19 0 -27 -2 -17 -5z"/>
<path d="M3188 7223 c6 -2 18 -2 25 0 6 3 1 5 -13 5 -14 0 -19 -2 -12 -5z"/>
<path d="M3513 7223 c59 -2 155 -2 215 0 59 1 10 3 -108 3 -118 0 -167 -2
-107 -3z"/>
<path d="M1910 7171 c0 -7 -5 -9 -12 -5 -7 5 -8 3 -3 -5 5 -9 10 -10 18 -2 6
6 8 14 4 18 -4 3 -7 1 -7 -6z"/>
<path d="M3054 7050 c0 -52 1 -74 3 -47 2 26 2 68 0 95 -2 26 -3 4 -3 -48z"/>
<path d="M1770 6940 c-6 -11 -8 -20 -6 -20 3 0 10 9 16 20 6 11 8 20 6 20 -3
0 -10 -9 -16 -20z"/>
<path d="M6206 6629 c-3 -306 -6 -363 -14 -355 -1 2 -16 -9 -32 -25 -24 -24
-37 -29 -78 -29 -56 0 -91 22 -120 73 -15 28 -17 67 -17 340 l0 307 -1215 -2
c-831 -2 -1062 -4 -730 -8 270 -3 414 -7 325 -9 l-160 -5 185 -8 c178 -8 359
-23 313 -26 -20 -2 -23 -8 -23 -42 0 -36 3 -40 25 -40 23 0 25 -4 25 -40 0
-36 -2 -40 -25 -40 -17 0 -25 -5 -25 -18 0 -9 -9 -23 -20 -30 -26 -16 -26 -32
0 -32 16 0 20 -7 20 -35 l0 -35 75 0 c60 0 75 -3 75 -15 0 -12 -17 -15 -94
-15 -71 0 -97 -4 -106 -15 -7 -8 -16 -15 -21 -15 -5 0 -9 7 -9 15 0 10 -11 15
-35 15 -28 0 -37 -5 -45 -24 -7 -19 -17 -25 -47 -28 -55 -4 625 -17 729 -14
59 2 85 0 81 -7 -4 -7 1 -8 13 -3 10 4 15 4 11 0 -4 -4 1 -17 12 -28 30 -33
43 -94 29 -141 -6 -22 -11 -43 -10 -47 1 -5 -4 -7 -11 -5 -6 1 -11 -3 -10 -8
1 -6 -6 -12 -15 -13 -9 -1 -51 -6 -92 -11 -41 -5 -412 -10 -825 -11 -412 0
-755 -4 -762 -8 -6 -4 68 -7 165 -6 123 1 151 -1 92 -5 l-85 -6 90 -5 c50 -3
92 -2 93 3 5 10 62 9 62 -1 0 -14 -23 -32 -42 -32 -23 0 -25 -45 -3 -54 10 -3
15 -19 15 -46 0 -36 -2 -40 -26 -40 -25 0 -26 -2 -23 -43 3 -36 1 -43 -11 -40
-13 3 -15 -4 -12 -36 3 -26 0 -41 -7 -41 -6 0 -11 -17 -11 -40 0 -33 -3 -40
-20 -40 -11 0 -20 -4 -20 -10 0 -6 -36 -10 -88 -10 -80 0 -91 -2 -110 -23 -16
-17 -22 -36 -22 -70 0 -26 -3 -46 -7 -46 -35 6 -38 -1 -35 -76 3 -73 3 -75
-20 -75 -55 0 -68 -10 -68 -51 0 -50 -20 -51 -21 -1 -1 33 -2 31 -11 -18 -5
-30 -7 -65 -5 -77 2 -12 0 -20 -4 -17 -5 3 -9 -6 -9 -20 0 -26 -31 -66 -50
-66 -5 0 -10 -18 -10 -39 0 -42 -16 -63 -26 -36 -9 22 -23 1 -25 -35 0 -23 -1
-23 -9 -5 -5 11 -9 -363 -9 -867 l-1 -888 1843 0 c1013 0 1859 -3 1880 -6 l37
-7 0 1812 0 1811 -323 0 c-178 0 -372 3 -430 7 l-106 6 -5 -324z m-1583 294
c-13 -2 -33 -2 -45 0 -13 2 -3 4 22 4 25 0 35 -2 23 -4z m25 -20 c-15 -2 -42
-2 -60 0 -18 2 -6 4 27 4 33 0 48 -2 33 -4z m118 -21 c-21 -2 -42 0 -47 5 -4
4 13 6 39 3 l47 -5 -39 -3z m-26 -367 c11 -13 5 -15 -44 -15 -31 0 -56 3 -56
8 0 4 18 6 40 4 25 -3 40 0 40 7 0 15 5 14 20 -4z m-597 -332 c-13 -2 -33 -2
-45 0 -13 2 -3 4 22 4 25 0 35 -2 23 -4z m2662 -16 c25 -13 39 -27 53 -54 18
-32 17 -1468 -1 -1503 -19 -37 -74 -70 -119 -70 -48 0 -87 20 -122 60 l-26 32
0 729 c0 789 -1 771 53 801 49 26 116 29 162 5z m-2682 -4 c-24 -2 -43 -8 -43
-14 0 -5 -18 -9 -40 -9 -22 0 -40 4 -40 9 0 10 54 18 125 18 l40 0 -42 -4z
m1476 -349 c69 -20 141 -90 164 -159 21 -60 22 -149 3 -203 -8 -22 -11 -42 -6
-44 11 -4 133 -171 236 -323 108 -161 177 -247 186 -231 13 23 108 58 162 59
93 1 177 -61 215 -161 25 -65 26 -97 5 -168 -21 -72 -81 -147 -147 -181 -69
-36 -180 -39 -243 -6 -71 38 -132 119 -164 218 -7 22 -39 71 -71 108 -32 38
-121 157 -198 266 -189 263 -175 249 -234 238 -43 -8 -50 -14 -69 -51 -11 -22
-27 -49 -35 -58 -8 -9 -12 -22 -8 -28 3 -6 2 -9 -3 -8 -6 2 -71 -78 -147 -177
-213 -281 -259 -320 -375 -320 -76 1 -102 12 -210 96 -88 67 -155 130 -192
179 -26 34 -27 34 -47 16 -11 -10 -18 -23 -14 -29 3 -5 2 -7 -3 -4 -6 3 -48
-31 -94 -75 -165 -157 -300 -277 -319 -283 -13 -4 -25 -25 -37 -62 -10 -31
-31 -71 -46 -89 -66 -75 -224 -103 -319 -56 -55 27 -121 91 -146 141 -24 51
-29 159 -9 217 13 38 13 50 4 57 -10 7 -10 8 0 5 7 -2 36 19 65 47 81 78 184
103 292 71 26 -8 60 -26 74 -40 l27 -26 38 38 c20 22 36 45 34 52 -2 8 3 14
10 15 18 0 43 35 35 49 -3 6 -3 8 2 4 5 -5 33 16 64 45 31 29 67 61 81 72 23
18 52 92 54 137 0 9 3 15 7 12 4 -2 14 7 22 20 23 34 113 76 163 76 54 0 83
-11 126 -49 20 -17 39 -27 43 -23 5 4 5 2 2 -4 -6 -11 113 -171 187 -252 17
-18 43 -52 59 -74 15 -23 27 -36 27 -30 0 6 19 35 43 64 76 95 118 159 111
170 -4 6 -3 8 4 4 19 -11 229 255 216 275 -4 7 -3 9 3 6 14 -9 37 19 27 34 -4
7 -3 9 3 6 6 -4 18 -1 28 7 17 12 17 14 0 47 -28 53 -35 99 -23 154 20 93 62
150 142 192 66 35 121 39 195 17z m-2252 -827 c-2 -23 -3 -1 -3 48 0 50 1 68
3 42 2 -26 2 -67 0 -90z m-20 -14 c-2 -16 -4 -5 -4 22 0 28 2 40 4 28 2 -13 2
-35 0 -50z m612 -125 c-5 -10 -11 -18 -12 -18 -2 0 -3 8 -3 18 0 10 6 19 13
19 8 0 9 -6 2 -19z m-242 -4 c-3 -3 -12 -4 -19 -1 -8 3 -5 6 6 6 11 1 17 -2
13 -5z m-350 -66 c-3 -8 -6 -5 -6 6 -1 11 2 17 5 13 3 -3 4 -12 1 -19z m173
11 c0 -4 -7 -9 -15 -13 -8 -3 -15 -12 -15 -20 0 -20 -17 -29 -26 -15 -5 8 -3
9 6 4 8 -5 11 -3 8 6 -3 8 -10 13 -15 12 -5 -1 -10 5 -10 13 0 10 4 11 11 4
12 -12 27 -13 25 -2 -1 4 -1 10 0 13 2 8 31 7 31 -2z m3341 -985 c20 -10 38
-32 51 -60 27 -62 18 -113 -28 -154 l-35 -30 -187 -1 c-103 0 -848 0 -1657 1
-1234 1 -1473 3 -1491 15 -24 15 -64 91 -64 119 0 40 34 89 74 107 39 18 106
19 1674 19 1465 0 1636 -2 1663 -16z"/>
<path d="M4338 6893 c12 -2 32 -2 45 0 12 2 2 4 -23 4 -25 0 -35 -2 -22 -4z"/>
<path d="M4458 6893 c7 -3 16 -2 19 1 4 3 -2 6 -13 5 -11 0 -14 -3 -6 -6z"/>
<path d="M1642 6685 c-17 -37 -14 -45 4 -12 9 16 14 31 11 33 -2 2 -9 -7 -15
-21z"/>
<path d="M1609 6614 c-5 -15 -8 -29 -5 -31 2 -2 8 10 14 26 13 38 5 41 -9 5z"/>
<path d="M1585 6549 c-4 -6 -5 -12 -2 -15 2 -3 7 2 10 11 7 17 1 20 -8 4z"/>
<path d="M3648 6483 c6 -2 18 -2 25 0 6 3 1 5 -13 5 -14 0 -19 -2 -12 -5z"/>
<path d="M3053 6400 c0 -47 2 -66 4 -42 2 23 2 61 0 85 -2 23 -4 4 -4 -43z"/>
<path d="M3500 6470 c-8 -5 -10 -10 -5 -10 6 0 17 5 25 10 8 5 11 10 5 10 -5
0 -17 -5 -25 -10z"/>
<path d="M3457 6441 c-4 -17 -3 -21 5 -13 5 5 8 16 6 23 -3 8 -7 3 -11 -10z"/>
<path d="M3432 6340 c0 -14 2 -19 5 -12 2 6 2 18 0 25 -3 6 -5 1 -5 -13z"/>
<path d="M3455 6259 c-5 -8 -5 -11 0 -7 4 4 16 -4 27 -17 11 -14 26 -25 35
-25 12 0 13 -3 4 -14 -11 -12 -7 -13 25 -3 l37 11 -37 8 c-20 4 -47 20 -60 35
-18 21 -24 23 -31 12z"/>
<path d="M1481 6244 c0 -11 3 -14 6 -6 3 7 2 16 -1 19 -3 4 -6 -2 -5 -13z"/>
<path d="M3043 6200 c0 -25 2 -35 4 -22 2 12 2 32 0 45 -2 12 -4 2 -4 -23z"/>
<path d="M1456 6175 c-3 -9 -6 -26 -5 -38 1 -16 4 -12 10 12 10 34 6 55 -5 26z"/>
<path d="M3815 6120 c10 -11 19 -20 19 -20 1 0 2 9 2 20 0 13 -7 20 -20 20
-18 0 -19 -1 -1 -20z"/>
<path d="M1431 6054 c0 -11 3 -14 6 -6 3 7 2 16 -1 19 -3 4 -6 -2 -5 -13z"/>
<path d="M1421 6014 c0 -11 3 -14 6 -6 3 7 2 16 -1 19 -3 4 -6 -2 -5 -13z"/>
<path d="M1406 5954 c-4 -14 -5 -28 -3 -31 3 -2 8 8 11 23 4 14 5 28 3 31 -3
2 -8 -8 -11 -23z"/>
<path d="M1390 5892 c0 -12 -5 -22 -11 -22 -5 0 -8 -4 -5 -9 3 -5 -3 -60 -15
-122 -31 -172 -36 -219 -27 -219 4 0 8 11 8 24 0 13 14 99 30 191 17 92 28
170 25 173 -3 3 -5 -4 -5 -16z"/>
<path d="M3310 5124 c0 -8 5 -12 10 -9 6 3 10 10 10 16 0 5 -4 9 -10 9 -5 0
-10 -7 -10 -16z"/>
<path d="M2536 4975 c-3 -9 0 -15 9 -15 8 0 15 7 15 15 0 8 -4 15 -9 15 -5 0
-11 -7 -15 -15z"/>
<path d="M891 4784 c0 -11 3 -14 6 -6 3 7 2 16 -1 19 -3 4 -6 -2 -5 -13z"/>
<path d="M1290 4741 c0 -11 4 -22 9 -25 4 -3 6 6 3 19 -5 30 -12 33 -12 6z"/>
<path d="M891 4704 c0 -11 3 -14 6 -6 3 7 2 16 -1 19 -3 4 -6 -2 -5 -13z"/>
<path d="M1571 4684 c0 -11 3 -14 6 -6 3 7 2 16 -1 19 -3 4 -6 -2 -5 -13z"/>
<path d="M906 4648 c-8 -32 -7 -58 2 -58 4 0 8 18 9 40 1 45 -2 50 -11 18z"/>
<path d="M953 4605 c0 -22 2 -30 4 -17 2 12 2 30 0 40 -3 9 -5 -1 -4 -23z"/>
<path d="M1581 4604 c0 -11 3 -14 6 -6 3 7 2 16 -1 19 -3 4 -6 -2 -5 -13z"/>
<path d="M921 4556 c-8 -13 -11 -30 -8 -38 3 -8 6 -5 6 8 1 11 6 25 13 32 6 6
9 14 7 17 -3 3 -11 -6 -18 -19z"/>
<path d="M922 4480 c0 -14 2 -19 5 -12 2 6 2 18 0 25 -3 6 -5 1 -5 -13z"/>
<path d="M1616 4465 c-3 -9 -6 -22 -5 -28 0 -7 5 -1 10 12 5 13 8 26 5 28 -2
2 -6 -3 -10 -12z"/>
<path d="M1626 4425 c-3 -9 -6 -22 -5 -28 0 -7 5 -1 10 12 5 13 8 26 5 28 -2
2 -6 -3 -10 -12z"/>
<path d="M1633 4365 c-3 -9 -3 -18 -1 -21 3 -3 8 4 11 16 6 23 -1 27 -10 5z"/>
<path d="M1666 4237 c3 -10 9 -15 12 -12 3 3 0 11 -7 18 -10 9 -11 8 -5 -6z"/>
<path d="M1686 4137 c4 -16 12 -47 19 -70 11 -39 12 -39 18 -15 5 19 0 39 -18
70 -21 34 -24 37 -19 15z"/>
<path d="M1712 4135 c6 -14 13 -23 16 -21 7 7 -9 46 -18 46 -5 0 -4 -11 2 -25z"/>
<path d="M1740 4124 c5 -19 12 -39 16 -42 4 -4 4 1 1 11 -4 10 -7 30 -7 43 0
13 -4 24 -9 24 -5 0 -5 -15 -1 -36z"/>
<path d="M1898 4003 c7 -3 16 -2 19 1 4 3 -2 6 -13 5 -11 0 -14 -3 -6 -6z"/>
<path d="M27 103 c-25 -4 -27 -8 -27 -54 0 -48 1 -49 30 -49 30 0 30 1 30 55
0 30 -1 54 -2 54 -2 -1 -15 -4 -31 -6z"/>
</g>
</svg>
